<svg width="190" height="62" viewBox="0 0 190 62" fill="none" xmlns="http://www.w3.org/2000/svg">
<rect width="190" height="62" rx="12" fill="#080809"/>
<path d="M41.3994 42.5142C36.875 42.4899 33.1324 33.879 33.1324 29.4937C33.1324 22.3302 38.8963 20.762 41.1176 20.762C42.1187 20.762 43.1876 21.1285 44.1304 21.4528C44.7897 21.6791 45.4716 21.9126 45.8508 21.9126C46.0778 21.9126 46.6127 21.7139 47.085 21.5396C48.0922 21.1658 49.3454 20.7012 50.8049 20.7012C50.8075 20.7012 50.811 20.7012 50.8136 20.7012C51.9033 20.7012 55.2075 20.9242 57.194 23.7055L57.6594 24.3575L56.9897 24.8286C56.033 25.5016 54.2873 26.7293 54.2873 29.1612C54.2873 32.0415 56.2643 33.1492 57.2141 33.682C57.6333 33.9171 58.0673 34.1596 58.0673 34.6899C58.0673 35.0362 55.1032 42.4713 50.7988 42.4713C49.7455 42.4713 49.001 42.1761 48.3443 41.9158C47.6799 41.6522 47.1067 41.4252 46.1595 41.4252C45.6794 41.4252 45.0723 41.6369 44.4296 41.8615C43.5512 42.1671 42.557 42.5142 41.429 42.5142H41.3994Z" fill="white"/>
<path d="M51.2608 14.1714C51.3729 17.9399 48.4822 20.5543 45.5949 20.3903C45.1191 17.3829 48.4818 14.1714 51.2608 14.1714Z" fill="white"/>
<path d="M74.1568 23.0284H76.1518L73.4386 15.5884H71.113L68.3998 23.0284H70.3948L70.7938 21.8592H73.7578L74.1568 23.0284ZM71.341 20.265L72.2758 17.5334L73.2106 20.265H71.341Z" fill="white"/>
<path d="M80.1892 17.7141L79.0036 21.0834L77.818 17.7141H75.9256L78.0346 23.0284H79.9726L82.0816 17.7141H80.1892Z" fill="white"/>
<path d="M86.6246 17.7141V18.2136C86.2484 17.8098 85.6898 17.5653 84.926 17.5653C83.4326 17.5653 82.2014 18.7876 82.2014 20.3712C82.2014 21.9549 83.4326 23.1772 84.926 23.1772C85.6898 23.1772 86.2484 22.9327 86.6246 22.5288V23.0284H88.3346V17.7141H86.6246ZM85.268 21.6679C84.4814 21.6679 83.9114 21.1684 83.9114 20.3712C83.9114 19.5741 84.4814 19.0746 85.268 19.0746C86.0546 19.0746 86.6246 19.5741 86.6246 20.3712C86.6246 21.1684 86.0546 21.6679 85.268 21.6679Z" fill="white"/>
<path d="M89.5891 23.0284H91.2991V15.2695H89.5891V23.0284Z" fill="white"/>
<path d="M93.4054 17.2464C93.964 17.2464 94.4314 16.8107 94.4314 16.2899C94.4314 15.7691 93.964 15.3333 93.4054 15.3333C92.8468 15.3333 92.3794 15.7691 92.3794 16.2899C92.3794 16.8107 92.8468 17.2464 93.4054 17.2464ZM92.5504 23.0284H94.2604V17.7141H92.5504V23.0284Z" fill="white"/>
<path d="M98.9203 17.5653C98.1565 17.5653 97.5979 17.8098 97.2217 18.2136V15.5884H95.5117V23.0284H97.2217V22.5288C97.5979 22.9327 98.1565 23.1772 98.9203 23.1772C100.414 23.1772 101.645 21.9549 101.645 20.3712C101.645 18.7876 100.414 17.5653 98.9203 17.5653ZM98.5783 21.6679C97.7917 21.6679 97.2217 21.1684 97.2217 20.3712C97.2217 19.5741 97.7917 19.0746 98.5783 19.0746C99.3649 19.0746 99.9349 19.5741 99.9349 20.3712C99.9349 21.1684 99.3649 21.6679 98.5783 21.6679Z" fill="white"/>
<path d="M102.614 23.0284H104.324V15.2695H102.614V23.0284Z" fill="white"/>
<path d="M107.103 21.009H111.15C111.196 20.807 111.219 20.5944 111.219 20.3712C111.219 18.7663 109.988 17.5653 108.323 17.5653C106.522 17.5653 105.291 18.7876 105.291 20.3712C105.291 21.9549 106.499 23.1772 108.449 23.1772C109.532 23.1772 110.375 22.8052 110.934 22.0824L109.566 21.3491C109.338 21.5829 108.939 21.753 108.471 21.753C107.844 21.753 107.32 21.5616 107.103 21.009ZM107.069 19.8186C107.229 19.2765 107.662 18.9789 108.312 18.9789C108.825 18.9789 109.338 19.2021 109.52 19.8186H107.069Z" fill="white"/>
<path d="M117.775 23.1772C119.45 23.1772 120.796 21.9549 120.796 20.3712C120.796 18.7876 119.45 17.5653 117.775 17.5653C116.099 17.5653 114.754 18.7876 114.754 20.3712C114.754 21.9549 116.099 23.1772 117.775 23.1772ZM117.775 21.6254C117.034 21.6254 116.464 21.1259 116.464 20.3712C116.464 19.6166 117.034 19.1171 117.775 19.1171C118.516 19.1171 119.086 19.6166 119.086 20.3712C119.086 21.1259 118.516 21.6254 117.775 21.6254Z" fill="white"/>
<path d="M125.103 17.5653C124.351 17.5653 123.781 17.8204 123.473 18.2136V17.7141H121.763V23.0284H123.473V20.1268C123.473 19.3722 123.906 19.032 124.533 19.032C125.08 19.032 125.525 19.3403 125.525 19.9992V23.0284H127.235V19.7654C127.235 18.3306 126.255 17.5653 125.103 17.5653Z" fill="white"/>
<path d="M134.599 19.2446V17.7141H133.425V16.2261L131.715 16.7044V17.7141H130.803V19.2446H131.715V21.1259C131.715 22.6139 132.365 23.241 134.599 23.0284V21.5829C133.847 21.6254 133.425 21.5829 133.425 21.1259V19.2446H134.599Z" fill="white"/>
<path d="M138.908 17.5653C138.155 17.5653 137.585 17.8204 137.278 18.2136V15.5884H135.568V23.0284H137.278V20.1268C137.278 19.3722 137.711 19.032 138.338 19.032C138.885 19.032 139.33 19.3403 139.33 19.9992V23.0284H141.04V19.7654C141.04 18.3306 140.059 17.5653 138.908 17.5653Z" fill="white"/>
<path d="M143.741 21.009H147.788C147.834 20.807 147.857 20.5944 147.857 20.3712C147.857 18.7663 146.626 17.5653 144.961 17.5653C143.16 17.5653 141.929 18.7876 141.929 20.3712C141.929 21.9549 143.137 23.1772 145.087 23.1772C146.17 23.1772 147.013 22.8052 147.572 22.0824L146.204 21.3491C145.976 21.5829 145.577 21.753 145.109 21.753C144.482 21.753 143.958 21.5616 143.741 21.009ZM143.707 19.8186C143.867 19.2765 144.3 18.9789 144.95 18.9789C145.463 18.9789 145.976 19.2021 146.158 19.8186H143.707Z" fill="white"/>
<path d="M77.9948 42.5141H81.3198L76.7978 30.1141H72.9218L68.3998 42.5141H71.7248L72.3898 40.5655H77.3298L77.9948 42.5141ZM73.3018 37.9084L74.8598 33.3558L76.4178 37.9084H73.3018Z" fill="white"/>
<path d="M88.0398 33.409C86.7668 33.409 85.8358 33.8164 85.2088 34.4895V33.657H82.3588V46.057H85.2088V41.6815C85.8358 42.3547 86.7668 42.7621 88.0398 42.7621C90.5288 42.7621 92.5808 40.725 92.5808 38.0855C92.5808 35.4461 90.5288 33.409 88.0398 33.409ZM87.4698 40.2467C86.1588 40.2467 85.2088 39.4141 85.2088 38.0855C85.2088 36.757 86.1588 35.9244 87.4698 35.9244C88.7808 35.9244 89.7308 36.757 89.7308 38.0855C89.7308 39.4141 88.7808 40.2467 87.4698 40.2467Z" fill="white"/>
<path d="M99.8777 33.409C98.6047 33.409 97.6737 33.8164 97.0467 34.4895V33.657H94.1967V46.057H97.0467V41.6815C97.6737 42.3547 98.6047 42.7621 99.8777 42.7621C102.367 42.7621 104.419 40.725 104.419 38.0855C104.419 35.4461 102.367 33.409 99.8777 33.409ZM99.3077 40.2467C97.9967 40.2467 97.0467 39.4141 97.0467 38.0855C97.0467 36.757 97.9967 35.9244 99.3077 35.9244C100.619 35.9244 101.569 36.757 101.569 38.0855C101.569 39.4141 100.619 40.2467 99.3077 40.2467Z" fill="white"/>
<path d="M106.035 42.5141H108.885V29.5827H106.035V42.5141Z" fill="white"/>
<path d="M113.516 39.1484H120.261C120.337 38.8118 120.375 38.4575 120.375 38.0855C120.375 35.4107 118.323 33.409 115.549 33.409C112.547 33.409 110.495 35.4461 110.495 38.0855C110.495 40.725 112.509 42.7621 115.758 42.7621C117.563 42.7621 118.969 42.1421 119.9 40.9375L117.62 39.7152C117.24 40.105 116.575 40.3884 115.796 40.3884C114.751 40.3884 113.877 40.0695 113.516 39.1484ZM113.459 37.1644C113.725 36.261 114.447 35.765 115.53 35.765C116.385 35.765 117.24 36.137 117.544 37.1644H113.459Z" fill="white"/>
<path d="M131.492 42.7621C134.38 42.7621 136.432 41.345 136.432 38.9535C136.432 36.3318 134.171 35.6764 132.157 35.1095C130.086 34.525 129.763 34.1352 129.763 33.5684C129.763 33.0724 130.238 32.6295 131.188 32.6295C132.404 32.6295 133.031 33.1787 133.487 34.0644L136.052 32.665C135.083 30.8404 133.373 29.8661 131.188 29.8661C128.889 29.8661 126.723 31.2478 126.723 33.6392C126.723 36.013 128.661 36.8987 130.637 37.4124C132.632 37.9261 133.392 38.2272 133.392 38.989C133.392 39.4672 133.031 39.9987 131.587 39.9987C130.086 39.9987 129.269 39.3078 128.794 38.2804L126.172 39.6975C126.913 41.5221 128.699 42.7621 131.492 42.7621Z" fill="white"/>
<path d="M143.145 36.2078V33.657H141.188V31.177L138.338 31.9741V33.657H136.818V36.2078H138.338V39.3432C138.338 41.8232 139.421 42.8684 143.145 42.5141V40.105C141.891 40.1758 141.188 40.105 141.188 39.3432V36.2078H143.145Z" fill="white"/>
<path d="M149.133 42.7621C151.926 42.7621 154.168 40.725 154.168 38.0855C154.168 35.4461 151.926 33.409 149.133 33.409C146.34 33.409 144.098 35.4461 144.098 38.0855C144.098 40.725 146.34 42.7621 149.133 42.7621ZM149.133 40.1758C147.898 40.1758 146.948 39.3432 146.948 38.0855C146.948 36.8278 147.898 35.9952 149.133 35.9952C150.368 35.9952 151.318 36.8278 151.318 38.0855C151.318 39.3432 150.368 40.1758 149.133 40.1758Z" fill="white"/>
<path d="M158.63 35.2335V33.657H155.78V42.5141H158.63V38.5107C158.63 36.757 160.302 36.3141 161.48 36.4912V33.4798C160.283 33.4798 159.01 34.0467 158.63 35.2335Z" fill="white"/>
<path d="M165.08 39.1484H171.825C171.901 38.8118 171.939 38.4575 171.939 38.0855C171.939 35.4107 169.887 33.409 167.113 33.409C164.111 33.409 162.059 35.4461 162.059 38.0855C162.059 40.725 164.073 42.7621 167.322 42.7621C169.127 42.7621 170.533 42.1421 171.464 40.9375L169.184 39.7152C168.804 40.105 168.139 40.3884 167.36 40.3884C166.315 40.3884 165.441 40.0695 165.08 39.1484ZM165.023 37.1644C165.289 36.261 166.011 35.765 167.094 35.765C167.949 35.765 168.804 36.137 169.108 37.1644H165.023Z" fill="white"/>
</svg>
