<svg width="190" height="62" viewBox="0 0 190 62" fill="none" xmlns="http://www.w3.org/2000/svg">
<rect width="189.543" height="62" rx="12" fill="#080809"/>
<g clip-path="url(#clip0_16_3)">
<path d="M50.4988 30.1177L32.7074 47.2496C31.8742 46.6803 31.3796 45.7332 31.3883 44.7241V15.5114C31.3796 14.5023 31.8742 13.5552 32.7074 12.9858L50.4988 30.1177Z" fill="#2196F3"/>
<path d="M56.7242 24.1337L50.4988 30.1178L32.7074 12.9859C32.7744 12.934 32.8443 12.8856 32.9165 12.8411C33.8568 12.2712 35.0313 12.2528 35.989 12.7929L56.7242 24.1337Z" fill="#4CAF50"/>
<path d="M64.2686 30.1179C64.2802 31.257 63.6612 32.3092 62.66 32.8526L56.7242 36.102L50.4988 30.1179L56.7242 24.1338L62.66 27.3832C63.6612 27.9266 64.2802 28.9788 64.2686 30.1179Z" fill="#F0BB1F"/>
<path d="M56.7242 36.1013L35.989 47.4421C35.0292 47.9738 33.8591 47.9554 32.9165 47.3939C32.8443 47.3494 32.7744 47.301 32.7074 47.2491L50.4989 30.1172L56.7242 36.1013Z" fill="#F15A2B"/>
</g>
<path d="M85.0711 21.0442H80.097V23.0282H82.747C82.3927 23.9777 81.5283 24.5587 80.2103 24.5587C78.283 24.5587 77.0926 23.3258 77.0926 21.6394C77.0926 19.8963 78.3397 18.6634 80.0119 18.6634C81.1315 18.6634 82.0243 19.1736 82.4353 19.8254L84.3626 18.7201C83.5265 17.388 81.9251 16.4526 80.0261 16.4526C77.1068 16.4526 74.8252 18.7484 74.8252 21.6252C74.8252 24.4737 77.0643 26.7694 80.182 26.7694C82.9596 26.7694 85.0711 24.9272 85.0711 21.8945V21.0442Z" fill="white"/>
<path d="M87.9083 24.3886V22.6314H91.4512V20.4773H87.9083V18.8334H91.8054V16.651H85.6409V26.571H91.8763V24.3886H87.9083Z" fill="white"/>
<path d="M99.1076 16.651H91.7385V18.8334H94.2893V26.571H96.5567V18.8334H99.1076V16.651Z" fill="white"/>
<path d="M102.226 16.651V26.571H104.493V16.651H102.226Z" fill="white"/>
<path d="M112.15 16.651H104.781V18.8334H107.331V26.571H109.599V18.8334H112.15V16.651Z" fill="white"/>
<path d="M120.001 26.7694C122.85 26.7694 125.16 24.5304 125.16 21.611C125.16 18.6917 122.85 16.4526 120.001 16.4526C117.153 16.4526 114.843 18.6917 114.843 21.611C114.843 24.5304 117.153 26.7694 120.001 26.7694ZM120.001 24.5587C118.386 24.5587 117.11 23.3825 117.11 21.611C117.11 19.8396 118.386 18.6634 120.001 18.6634C121.617 18.6634 122.892 19.8396 122.892 21.611C122.892 23.3825 121.617 24.5587 120.001 24.5587Z" fill="white"/>
<path d="M131.255 16.651V22.0362L127.428 16.651H125.728V26.571H127.995V21.1859L131.821 26.571H133.522V16.651H131.255Z" fill="white"/>
<path d="M85.0711 37.894V38.2766C85.0711 39.5143 84.6318 40.5582 83.7532 41.4085C82.8746 42.2494 81.7172 42.6698 80.2812 42.6698C78.7696 42.6698 77.5225 42.1785 76.5399 41.1959C75.5574 40.2039 75.0661 38.9899 75.0661 37.5539C75.0661 36.1179 75.5527 34.9086 76.5258 33.926C77.4989 32.934 78.7318 32.438 80.2245 32.438C81.1315 32.438 81.9629 32.6553 82.7187 33.0899C83.4839 33.5245 84.0744 34.1055 84.4901 34.833L83.8241 35.2298C83.4934 34.6062 83.0021 34.1055 82.3502 33.7276C81.7078 33.3497 80.9992 33.1607 80.2245 33.1607C78.9396 33.1607 77.8815 33.5859 77.0501 34.4362C76.2282 35.277 75.8172 36.3163 75.8172 37.5539C75.8172 38.7915 76.2329 39.8355 77.0643 40.6858C77.8957 41.5266 78.968 41.947 80.2812 41.947C81.4433 41.947 82.3833 41.6305 83.1013 40.9975C83.8193 40.3646 84.2209 39.5662 84.3059 38.6026H80.097V37.894H85.0711Z" fill="white"/>
<path d="M95.1304 41.1818C94.1384 42.1738 92.9291 42.6698 91.5025 42.6698C90.0759 42.6698 88.8666 42.1738 87.8746 41.1818C86.8826 40.1803 86.3866 38.971 86.3866 37.5539C86.3866 36.1367 86.8826 34.9322 87.8746 33.9402C88.8666 32.9387 90.0759 32.438 91.5025 32.438C92.9291 32.438 94.1384 32.9387 95.1304 33.9402C96.1224 34.9322 96.6184 36.1367 96.6184 37.5539C96.6184 38.971 96.1224 40.1803 95.1304 41.1818ZM88.399 40.6716C89.2493 41.5219 90.2838 41.947 91.5025 41.947C92.7213 41.947 93.7511 41.5219 94.5919 40.6716C95.4422 39.8119 95.8673 38.7726 95.8673 37.5539C95.8673 36.3351 95.4422 35.3006 94.5919 34.4503C93.7511 33.5906 92.7213 33.1607 91.5025 33.1607C90.2838 33.1607 89.2493 33.5906 88.399 34.4503C87.5581 35.3006 87.1377 36.3351 87.1377 37.5539C87.1377 38.7726 87.5581 39.8119 88.399 40.6716Z" fill="white"/>
<path d="M106.7 41.1818C105.708 42.1738 104.499 42.6698 103.072 42.6698C101.646 42.6698 100.436 42.1738 99.4443 41.1818C98.4523 40.1803 97.9563 38.971 97.9563 37.5539C97.9563 36.1367 98.4523 34.9322 99.4443 33.9402C100.436 32.9387 101.646 32.438 103.072 32.438C104.499 32.438 105.708 32.9387 106.7 33.9402C107.692 34.9322 108.188 36.1367 108.188 37.5539C108.188 38.971 107.692 40.1803 106.7 41.1818ZM99.9686 40.6716C100.819 41.5219 101.853 41.947 103.072 41.947C104.291 41.947 105.321 41.5219 106.162 40.6716C107.012 39.8119 107.437 38.7726 107.437 37.5539C107.437 36.3351 107.012 35.3006 106.162 34.4503C105.321 33.5906 104.291 33.1607 103.072 33.1607C101.853 33.1607 100.819 33.5906 99.9686 34.4503C99.1278 35.3006 98.7074 36.3351 98.7074 37.5539C98.7074 38.7726 99.1278 39.8119 99.9686 40.6716Z" fill="white"/>
<path d="M119.531 37.894V38.2766C119.531 39.5143 119.092 40.5582 118.213 41.4085C117.334 42.2494 116.177 42.6698 114.741 42.6698C113.229 42.6698 111.982 42.1785 111 41.1959C110.017 40.2039 109.526 38.9899 109.526 37.5539C109.526 36.1179 110.012 34.9086 110.986 33.926C111.959 32.934 113.192 32.438 114.684 32.438C115.591 32.438 116.423 32.6553 117.178 33.0899C117.944 33.5245 118.534 34.1055 118.95 34.833L118.284 35.2298C117.953 34.6062 117.462 34.1055 116.81 33.7276C116.168 33.3497 115.459 33.1607 114.684 33.1607C113.399 33.1607 112.341 33.5859 111.51 34.4362C110.688 35.277 110.277 36.3163 110.277 37.5539C110.277 38.7915 110.693 39.8355 111.524 40.6858C112.355 41.5266 113.428 41.947 114.741 41.947C115.903 41.947 116.843 41.6305 117.561 40.9975C118.279 40.3646 118.681 39.5662 118.766 38.6026H114.557V37.894H119.531Z" fill="white"/>
<path d="M122.164 41.8053H126.841V42.5139H121.413V32.5939H122.164V41.8053Z" fill="white"/>
<path d="M129.153 41.8053H134.113V42.5139H128.402V32.5939H134.042V33.3025H129.153V37.1571H133.688V37.8657H129.153V41.8053Z" fill="white"/>
<path d="M143.109 32.5939C143.997 32.5939 144.734 32.8868 145.32 33.4725C145.906 34.0583 146.199 34.7905 146.199 35.6691C146.199 36.5477 145.906 37.2799 145.32 37.8657C144.734 38.442 143.997 38.7301 143.109 38.7301H140.488V42.5139H139.737V32.5939H143.109ZM143.109 38.0215C143.79 38.0215 144.347 37.7995 144.782 37.3555C145.226 36.9115 145.448 36.3493 145.448 35.6691C145.448 34.9794 145.226 34.4126 144.782 33.9685C144.347 33.5245 143.79 33.3025 143.109 33.3025H140.488V38.0215H143.109Z" fill="white"/>
<path d="M148.805 41.8053H153.482V42.5139H148.054V32.5939H148.805V41.8053Z" fill="white"/>
<path d="M161.994 42.5139L161.031 39.9914H156.056L155.093 42.5139H154.299L158.154 32.5939H158.947L162.788 42.5139H161.994ZM156.34 39.2828H160.761L158.551 33.515L156.34 39.2828Z" fill="white"/>
<path d="M169.846 32.5939L166.232 38.4325V42.5139H165.481V38.4325L161.868 32.5939H162.718L165.864 37.7098L168.996 32.5939H169.846Z" fill="white"/>
<defs>
<clipPath id="clip0_16_3">
<rect width="35.4286" height="35.4286" fill="white" transform="translate(30.1143 12.4004)"/>
</clipPath>
</defs>
</svg>
