<svg width="89" height="75" viewBox="0 0 89 75" fill="none" xmlns="http://www.w3.org/2000/svg">
<path d="M18.3835 18.018C17.527 18.1759 17.0258 26.7781 17.0233 26.8266C16.9719 27.6335 7.74852 31.4138 7.29172 30.9661C4.05849 27.8101 0.830512 25.7115 0.199109 26.202C-0.726116 26.9177 1.87305 35.0413 1.87946 35.0495C2.06553 35.4929 1.32509 37.7281 1.27632 38.2676C1.08961 40.333 1.17045 42.387 1.85378 44.3725C5.2718 54.3061 14.173 54.4621 22.6848 50.8201C34.4875 45.773 35.2222 31.9797 24.0431 25.7232C24.0431 25.7232 20.8889 17.5613 18.3827 18.0185L18.3835 18.018Z" fill="white"/>
<path d="M29.3306 74.9995H23.3078C23.1743 72.7298 24.1187 70.396 23.7132 68.1497C23.4647 66.7866 22.5564 65.2485 20.8543 64.9468C19.8707 64.7712 18.4748 64.5341 16.9985 64.4054C15.5216 64.5347 14.127 64.7706 13.1408 64.9468C11.4406 65.2486 10.5324 66.7867 10.2837 68.1497C9.87824 70.3954 10.8226 72.7298 10.6891 74.9995H4.66633C4.3254 73.1463 4.78904 70.746 4.65937 69.4995C4.10086 64.0858 3.30895 57.5993 5.14072 52.24C8.91309 55.6922 14.7898 55.8126 20.8822 53.7476C23.8241 52.7497 26.3972 51.7201 28.3125 50C30.8343 55.5951 29.9476 63.607 29.3372 69.4993C29.2094 70.7464 29.673 73.1468 29.3308 75L29.3306 74.9995Z" fill="white"/>
<path d="M61.6285 0C63.0006 0 62.603 3.0173 62.6289 3.47709C62.8582 7.47482 61.4735 11.397 61.6429 15.3885C61.6889 16.2431 75.1749 20.495 75.3344 20.2087C78.0774 15.262 82.8205 6.42065 85.5344 6.70431C87.3544 6.89424 88.445 10.3448 88.6686 12.1629C89.9916 22.9437 87.3362 33.652 81.0037 40.8773C77.0184 45.4227 71.7807 48.5243 65.4576 47.9263C57.7151 47.1949 46.2932 44.1719 43.6822 35.6727C41.5516 28.7413 44.8237 20.2842 47.8318 14.0999C50.7688 8.07274 57.6217 0 61.6278 0H61.6285Z" fill="white"/>
<path d="M85.9999 74.9986H70.7725C70.7382 74.3718 71.0558 73.6888 71.2952 73.1109C71.9374 71.5597 73.1112 70.1893 73.2485 68.4627C73.4066 66.4654 72.2639 64.5027 71.2666 62.8707C70.7038 61.9438 67.4567 62.7527 66.5923 62.9307C64.7376 63.3188 62.776 64.0624 60.8617 63.6893C58.6417 63.2575 56.2921 62.0691 54.0011 62.18C52.5389 62.2491 52.2498 63.6189 51.9348 64.9646C51.6878 65.9998 51.7265 67.0454 51.9367 68.0877C52.0898 68.8339 54.278 73.1715 54.1352 75L39 74.9993C39.0667 73.2936 40.8593 70.4744 41.3349 68.3115C41.8627 65.9091 41.5108 63.5818 41.7763 61.1691C41.9828 59.299 42.3525 57.4386 42.9622 55.6586C44.2847 51.7912 46.6546 48.9473 49.3312 46.0061C49.4462 45.8834 53.0655 47.6596 53.5737 47.8416C57.9864 49.4422 62.6244 51.0547 67.3731 50.542C68.7025 50.3998 70.0058 50.0809 71.3003 49.7423C72.7727 49.3581 74.2642 48.953 75.6285 48.2492C75.9416 48.0875 78.6374 46.526 78.3611 46.102L80.1111 48.7973C81.7575 51.711 83.2933 54.3612 83.4675 57.8679C83.6002 60.5703 83.2674 63.3458 83.7825 66.0175C84.304 68.7245 85.5198 72.2045 86 74.9988L85.9999 74.9986Z" fill="white"/>
</svg>
